<svg xmlns="http://www.w3.org/2000/svg" xmlns:xlink="http://www.w3.org/1999/xlink" version="1.1"  x="0px" y="0px" viewBox="0 0 299 54" style="enable-background:new 0 0 299 54;" xml:space="preserve">
<style type="text/css">
	.lines {
		opacity: 1;
		fill-rule: evenodd;
		clip-rule: evenodd;
		fill: #242b31;
	}
</style>
<path class="lines" d="M 297.4, 3 H 264 V 0 h 33.4 c 0.9, 0, 1.7, 0.7, 1.7, 1.5 C 299, 2.3, 298.3, 3, 297.4, 3 z M 254, 3 H 108.7 c -0.9, 0-1.7-0.7-1.7-1.5  c 0-0.8, 0.7-1.5, 1.7-1.5 H 254 V 3 z M 191, 18.5 c 0, 0.8-0.7, 1.5-1.6, 1.5 H 31.9 v -3 h 157.4 C 190.3, 17, 191, 17.7, 191, 18.5 z M 49.9, 37 H 29.6  c -0.9, 0-1.6-0.7-1.6-1.5 c 0-0.8, 0.7-1.5, 1.6-1.5 h 20.3 V 37 z M 0, 18.5 C 0, 17.7, 0.7, 17, 1.6, 17 h 20.3 v 3 H 1.6 C 0.7, 20, 0, 19.3, 0, 18.5 z M 174, 35.5  c 0, 0.8-0.7, 1.5-1.6, 1.5 H 59.9 v -3 h 112.5 C 173.3, 34, 174, 34.7, 174, 35.5 z M 102.6, 51 h 93.7 c 0.9, 0, 1.6, 0.7, 1.6, 1.5 c 0, 0.8-0.7, 1.5-1.6, 1.5  h -93.7 c -0.9, 0-1.6-0.7-1.6-1.5 C 101, 51.7, 101.7, 51, 102.6, 51 z"/>
</svg>