<svg xmlns="http://www.w3.org/2000/svg" width="1250" height="229" viewBox="0 0 1250 229">
  <metadata><?xpacket begin="﻿" id="W5M0MpCehiHzreSzNTczkc9d"?>
<x:xmpmeta xmlns:x="adobe:ns:meta/" x:xmptk="Adobe XMP Core 5.6-c138 79.159824, 2016/09/14-01:09:01        ">
   <rdf:RDF xmlns:rdf="http://www.w3.org/1999/02/22-rdf-syntax-ns#">
      <rdf:Description rdf:about=""/>
   </rdf:RDF>
</x:xmpmeta>
                                                                                                    
                                                                                                    
                                                                                                    
                                                                                                    
                                                                                                    
                                                                                                    
                                                                                                    
                                                                                                    
                                                                                                    
                                                                                                    
                                                                                                    
                                                                                                    
                                                                                                    
                                                                                                    
                                                                                                    
                                                                                                    
                                                                                                    
                                                                                                    
                                                                                                    
                                                                                                    
                           
<?xpacket end="w"?></metadata>
<defs>
    <style>
      .cls-1 {
        fill: #283338;
        fill-rule: evenodd;
        opacity: .4;
      }
    </style>
  </defs>
  <path class="cls-1" d="M1002.16,9.117V21.3H431.83c-1.889-2.955-7.643-9.169,0-11.247,1.823-1.588,6.97-.936,10.285-0.937H1002.16Zm37.4,0H1174.2c1.69,2.926,2.78,3.175,2.8,8.435-1.06,1.068-.37,0-0.93,1.875-0.94.312-1.87,0.625-2.81,0.937-1.71,1.491-6.2.935-9.35,0.937H1039.56V9.117ZM98.046,74.725V87.847H37.273c-5.429,0-20.206,1.248-23.374-.937-2.281-1.573-1.9-5.451-1.87-9.373L13.9,76.6c3.544-3.493,15.779-1.874,22.439-1.874H98.046Zm37.4,0h31.789V87.847H135.445V74.725Zm63.578,0H725.41c8.862,0,28.093-1.922,30.854,3.749V84.1c-1.064,1.068-.372,0-0.935,1.874l-2.8.937c-1.823,1.588-6.969.936-10.284,0.937H199.023V74.725Zm7.48,66.545v13.122H154.144c-10.124,0-22.231.621-30.854-.937-0.883-1.688-1.294-1.476-1.869-3.749h-0.935v-3.749h0.935v-1.875c2.5-3.8,10.572-2.811,16.829-2.812H206.5Zm38.333,0h419.8c7.085,0,22.82-1.994,25.244,2.812v6.561c-1.064,1.068-.372,0-0.935,1.874-14.469,3.053-35.817,1.875-53.293,1.875H244.836V141.27Zm163.62,66.546H738.5c13.929,0,30.667-1.277,43.008.937q0.468,1.406.935,2.812h0.935v4.686h-0.935c-1.17,2.427.234,1.2-1.87,2.812V220H407.521c-1.446-2.644-2.592-3.183-2.805-7.5A20.924,20.924,0,0,0,408.456,207.816Z"/>
</svg>
