<svg width="60" height="36" xmlns="http://www.w3.org/2000/svg">

    <g>
        <title>background</title>
        <rect fill="none" id="canvas_background" height="38" width="62" y="-1" x="-1"/>
    </g>

    <g>
        <title>Layer 1</title>
        <g id="svg_1">
            <path stroke="#fff" stroke-width="0" fill="rgba(255, 255, 255, 1)" d=" m 42,0.002371 l -24,0 c -9.925,0 -18,8.075 -18,18 s 8.075,18 18,18 l 24,0 c 9.925,0 18,-8.075 18,-18 s -8.075,-18 -18,-18 z  m 0,34 l -24,0 c -8.822,0 -16,-7.178 -16,-16 s 7.178,-16 16,-16 l 24,0 c 8.822,0 16,7.178 16,16 s -7.178,16 -16,16 z "/>

            <path fill="rgba(255, 255, 255, 1)" d=" m 18,5.002371 c -7.168,0 -13,5.832 -13,13 s 5.832,13 13,13 s 13,-5.832 13,-13 s -5.832,-13 -13,-13 z  m 0,24 c -6.065,0 -11,-4.935 -11,-11 s 4.935,-11 11,-11 s 11,4.935 11,11 s -4.935,11 -11,11 z "/>

            <path fill="rgba(255, 255, 255, 1)" d=" m 48.293,13.295371 l -7.293,7.293 l -3.293,-3.293 c -0.391,-0.391 -1.023,-0.391 -1.414,0 s -0.391,1.023 0,1.414 l 4,4 c 0.195,0.195 0.451,0.293 0.707,0.293 s 0.512,-0.098 0.707,-0.293 l 8,-8 c 0.391,-0.391 0.391,-1.023 0,-1.414 s -1.023,-0.391 -1.414,0 z "/>
        </g>
    </g>

</svg>
