<svg width="614" height="382" xmlns="http://www.w3.org/2000/svg">

    <!-- <g>
        <rect fill="none" height="384" width="614" y="-1" x="-1"/>
    </g> -->

    <g>
        <!-- fill="rgba(180, 160, 100, 1)" -->
        <path fill="#fff" d="
             m 265.75,0.083261
              l -60,0
              c -105.627,0 -191.25,85.623 -191.25,191.25
               c 0,105.627 85.623,191.25 191.25,191.25
                l 175,0
                  z
              m 103.5,344.25
               l -162.5,0
               c -84.494,0 -153,-68.506 -153,-153
                s 68.506,-153 153,-153
                l 70.5,0
                  z
               m -160,-267.75
                c -63.38,0 -114.75,51.37 -114.75,114.75
                 c 0,63.38 51.37,114.75 114.75,114.75
                  s 114.75,-51.37 114.75,-114.75
                  c 0,-63.38 -51.37,-114.75 -114.75,-114.75
                   z
                m 0,191.25
                 c -42.247,0 -76.5,-34.253 -76.5,-76.5
                  s 34.253,-76.5 76.5,-76.5
                   s 76.5,34.253 76.5,76.5
                    s -34.253,76.5 -76.5,76.5
                     z
                "/>
    </g>

</svg>
