<svg width="486.559" height="257.559" xmlns="http://www.w3.org/2000/svg">
 <g>
  <title>background</title>
  <rect x="-1" y="-1" width="83.093132" height="44.926482" id="canvas_background" fill="none"/>
 </g>

 <g>
  <title>Layer 1</title>
  <g transform="rotate(180 243.2794952392578,129.27899169921878) ">
   <path stroke-width="0" d="m 358.025,0.745 l -148.388,0 c 19.053,12.08 35.243,28.223 47.338,47.275 l 101.051,0 c 44.798,0 81.256,36.459 81.256,81.26 c 0,44.797 -36.458,81.256 -81.256,81.256 l -101.051,0 c -12.095,19.053 -28.285,35.195 -47.338,47.277l148.389,0 c 70.868,0 128.533,-57.666 128.533,-128.533 c 0,-70.871 -57.665,-128.535 -128.534,-128.535 z" fill="#FFFFFF"/>
   <path stroke-width="0" d="m 257.068,129.28 c 0,-70.871 -57.666,-128.535 -128.533,-128.535 c -70.87,0 -128.535,57.664 -128.535,128.535 c 0,70.867 57.665,128.533 128.535,128.533 c 70.867,0 128.533,-57.666 128.533,-128.533 z m -128.533,81.256 c -44.8,0 -81.259,-36.459 -81.259,-81.256 c 0,-44.801 36.459,-81.26 81.259,-81.26 c 44.798,0 81.256,36.459 81.256,81.26 c 0,44.797 -36.458,81.256 -81.256,81.256 z" fill="#FFFFFF"/>
  </g>
 </g>
</svg>
