<svg width="62" height="38" xmlns="http://www.w3.org/2000/svg">

    <g>
        <title>background</title>
        <rect fill="none" id="canvas_background" height="38" width="62"/>
    </g>

    <g>
        <title>Layer 1</title>
        <g id="svg_1" transform="translate(1,1)">
            <path stroke="#888" stroke-dasharray="44.5, 4" stroke-width="1" fill="#fff" d=" m 42,0 l -24,0 c -9.925,0 -18,8.075 -18,18 s 8.075,18 18,18 l 24,0 c 9.925,0 18,-8.075 18,-18 s -8.075,-18 -18,-18 z"/>

            <path stroke="#fff" stroke-width="1"  fill="#888" d=" m 18,5.002371 c -7.168,0 -13,5.832 -13,13 s 5.832,13 13,13 s 13,-5.832 13,-13 s -5.832,-13 -13,-13 z  m 0,24 c -6.065,0 -11,-4.935 -11,-11 s 4.935,-11 11,-11 s 11,4.935 11,11 s -4.935,11 -11,11 z "/>

            <path stroke="#fff" stroke-width="1"  fill="#888" d=" m 48.293,13.295371 l -7.293,7.293 l -3.293,-3.293 c -0.391,-0.391 -1.023,-0.391 -1.414,0 s -0.391,1.023 0,1.414 l 4,4 c 0.195,0.195 0.451,0.293 0.707,0.293 s 0.512,-0.098 0.707,-0.293 l 8,-8 c 0.391,-0.391 0.391,-1.023 0,-1.414 s -1.023,-0.391 -1.414,0 z "/>
        </g>
    </g>

</svg>
