<svg width="64" height="40" xmlns="http://www.w3.org/2000/svg">

    <style>
    .m {
        fill: #fff;
    }
    .i {
        <!-- stroke: rgba(180, 160, 100, 1); -->
        fill: rgba(0,0,0,.06);
        <!-- stroke: #444; -->
    }
    </style>

    <defs>
        <g id="switch">
            <!-- fill="rgba(180, 160, 100, 1)" -->
            <path d="m42,0.000548l-24,0c-9.925,0 -18,8.075 -18,18s8.075,18 18,18l24,0c9.925,0 18,-8.075 18,-18s-8.075,-18 -18,-18zm-24,31c-7.168,0 -13,-5.832 -13,-13s5.832,-13 13,-13s13,5.832 13,13s-5.832,13 -13,13zm31.707,-16.293l-8,8c-0.195,0.195 -0.451,0.293 -0.707,0.293s-0.512,-0.098 -0.707,-0.293l-4,-4c-0.391,-0.391 -0.391,-1.023 0,-1.414s1.023,-0.391 1.414,0l3.293,3.293l7.293,-7.293c0.391,-0.391 1.023,-0.391 1.414,0s0.391,1.023 0,1.414z"/>


        </g>
    </defs>

    <!-- <use x="4" y="4" href="#switch" class="i"/> -->
    <use x="0" y="0" href="#switch" class="m"/>

</svg>
