<?xml version="1.0" encoding="iso-8859-1"?>
<!-- Generator: Adobe Illustrator 19.0.0, SVG Export Plug-In . SVG Version: 6.00 Build 0)  -->
<svg xmlns="http://www.w3.org/2000/svg" xmlns:xlink="http://www.w3.org/1999/xlink" version="1.1" id="Layer_1" x="0px" y="0px" viewBox="0 0 512 512" style="enable-background:new 0 0 512 512;" xml:space="preserve" width="512px" height="512px">
<g>
	<g>
		<path d="M482.626,284.841c1.21-9.583,1.821-19.268,1.821-28.842c0-36.924-9.017-73.607-26.075-106.083    c-16.508-31.429-40.519-58.995-69.435-79.72c-3.597-2.579-8.607-1.755-11.186,1.846c-2.579,3.599-1.753,8.607,1.846,11.186    c55.613,39.859,88.817,104.447,88.817,172.773c0,10.027-0.723,20.188-2.146,30.199c-0.331,2.321,0.372,4.67,1.921,6.429    c17.914,20.331,27.778,46.465,27.778,73.585c0,61.417-49.966,111.382-111.383,111.382c-21.323,0-42.043-6.042-59.918-17.474    c-1.98-1.266-4.412-1.599-6.657-0.914c-20.04,6.108-40.903,9.204-62.01,9.204c-117.125,0-212.413-95.288-212.413-212.414    c0-10.032,0.723-20.192,2.146-30.199c0.33-2.321-0.372-4.67-1.922-6.429c-17.913-20.331-27.777-46.465-27.777-73.585    C16.033,84.368,66,34.403,127.416,34.403c21.323,0,42.043,6.042,59.918,17.474c1.977,1.266,4.409,1.6,6.657,0.914    c20.041-6.108,40.903-9.204,62.01-9.204c34.437,0,68.628,8.427,98.879,24.369c3.92,2.064,8.766,0.561,10.83-3.354    c2.065-3.918,0.562-8.766-3.354-10.83c-32.547-17.153-69.323-26.218-106.355-26.218c-21.464,0-42.7,2.981-63.18,8.864    c-19.724-11.819-42.257-18.048-65.403-18.048C57.159,18.369,0,75.527,0,145.785c0,29.788,10.405,58.537,29.374,81.373    c-1.209,9.581-1.821,19.264-1.821,28.842c0,61.02,23.763,118.388,66.911,161.537c43.148,43.147,100.516,66.911,161.537,66.911    c21.464,0,42.7-2.981,63.179-8.864c19.724,11.819,42.257,18.048,65.403,18.048C454.841,493.629,512,436.471,512,366.214  C512,336.426,501.595,307.678,482.626,284.841z" fill="#777"/>
	</g>
</g>
<g>
	<g>
		<path d="M318.647,254.431c-16.958-11.969-37.386-19.178-57.14-26.15c-39.166-13.824-53.073-21.404-53.073-36.415    c0-25.179,25.866-30.463,47.566-30.463c10.911,0,34.633,5.121,43.261,11.432c13.08,9.565,31.509,6.711,41.08-6.372    c4.636-6.337,6.525-14.1,5.322-21.859s-5.356-14.585-11.693-19.22c-21.475-15.706-58.522-22.771-77.97-22.771    c-31.297,0-57.764,8.27-76.538,23.915c-19.227,16.023-29.817,39.226-29.817,65.337c0,27.13,11.828,49.235,35.157,65.702    c9.019,6.366,19.829,11.969,34.019,17.636c4.111,1.642,8.776-0.361,10.417-4.473c1.642-4.113-0.36-8.777-4.473-10.418    c-12.991-5.187-22.752-10.221-30.717-15.842c-18.824-13.29-28.37-30.986-28.37-52.603c0-21.267,8.54-40.097,24.048-53.02    c15.857-13.215,38.774-20.199,66.274-20.199c17.44,0,50.949,6.838,68.503,19.678c5.875,4.297,7.199,12.789,2.897,18.671    c-4.35,5.945-12.726,7.247-18.674,2.897c-12.121-8.867-39.325-14.524-52.726-14.524c-40.418,0-63.599,16.947-63.599,46.497    c0,27.073,24.092,37.53,63.77,51.535c18.725,6.609,38.088,13.441,53.23,24.129c18.824,13.29,28.37,30.987,28.37,52.603    c0,43.795-32.861,73.219-81.77,73.219c-33.463,0-70.01-15.179-85.01-35.308c-4.403-5.908-3.178-14.295,2.731-18.698    c5.843-4.358,14.347-3.106,18.696,2.73c8.836,11.857,36.494,24.554,63.583,24.554c34.47,0,55.048-17.382,55.048-46.497    c0-26.825-24.116-37.419-60.906-50.52c-4.17-1.484-8.755,0.692-10.242,4.863c-1.486,4.171,0.692,8.755,4.862,10.241    c39.92,14.215,50.252,21.498,50.252,35.416c0,11.984-4.561,20.219-13.942,25.177c-8.706,4.599-19.445,5.287-25.073,5.287    c-24.449,0-46.02-11.784-50.728-18.102c-4.691-6.296-11.554-10.387-19.323-11.522c-7.771-1.137-15.516,0.824-21.811,5.517    c-12.997,9.686-15.69,28.139-6.005,41.134c18.033,24.199,59.192,41.762,97.867,41.762c28.371,0,52.718-8.461,70.411-24.469    c17.921-16.214,27.393-38.616,27.393-64.784C353.804,293.005,341.975,270.899,318.647,254.431z" fill="#777"/>
	</g>
</g>
</svg>
